<svg id="Capa_1" enable-background="new 0 0 512 512" height="512" viewBox="0 0 512 512" width="512" xmlns="http://www.w3.org/2000/svg"><g><path d="m512 256c0 86.401-42.804 162.797-108.362 209.156h-295.276c-65.558-46.359-108.362-122.755-108.362-209.156 0-141.385 114.615-256 256-256s256 114.615 256 256z" fill="#7883ee"/><path d="m511.521 271.751-205.523-205.522-138.9 138.899.033.033-54.784 54.784 205.211 205.21h86.079c61.546-43.52 103.034-113.513 107.884-193.404z" fill="#4652ca"/><path d="m141 209.819c0 63.513 51.487 115 115 115l11.588-114.873-11.588-115.127c-63.513 0-115 51.487-115 115z" fill="#fcc515"/><path d="m371 209.819c0 63.513-51.487 115-115 115v-230c63.513 0 115 51.487 115 115z" fill="#fa0"/><path d="m181 209.819c0 41.421 33.579 75 75 75l7.706-74.873-7.706-75.127c-41.421 0-75 33.579-75 75z" fill="#fa0"/><path d="m331 209.819c0-41.421-33.579-75-75-75v150c41.421 0 75-33.579 75-75z" fill="#ff9500"/><path d="m206 209.819c0 27.614 22.386 50 50 50l4.882-49.873-4.882-50.127c-27.614 0-50 22.386-50 50z" fill="#8cc7fc"/><path d="m306 209.819c0-27.614-22.386-50-50-50v100c27.614 0 50-22.386 50-50z" fill="#6cb1f8"/><path d="m112.349 159.946h40v100h-40z" fill="#fa0"/><path d="m359.651 159.946h40v100h-40z" fill="#ff9500" transform="matrix(-1 0 0 -1 759.303 419.892)"/><path d="m256 106.229h-50v-40h50l4.882 20z" fill="#fa0"/><path d="m256 66.229h50v40h-50z" fill="#ff9500" transform="matrix(-1 0 0 -1 562 172.457)"/><path d="m196 307.946-40 40 100 3.583 4.882-23.583-4.882-20z" fill="#fa0"/><path d="m316 307.946h-60v43.583l100-3.583z" fill="#ff9500"/><path d="m131.249 354.81c-13.72 8.327-22.887 23.407-22.887 40.629v69.717c41.721 29.503 92.653 46.844 147.638 46.844v-164.054z" fill="#8cc7fc"/><path d="m380.864 354.881-85.577-6.935h-39.287v39.287 124.767c54.985 0 105.917-17.341 147.638-46.844v-69.717c0-17.175-9.116-32.217-22.774-40.558z" fill="#6cb1f8"/><path d="m256 472.945 4.882-52.533-4.882-65.412-100-7.054h-.145c-9.008 0-17.43 2.508-24.606 6.864 3.563 65.823 58.046 118.104 124.751 118.135z" fill="#fa0"/><path d="m256 472.945c.02 0 .039.001.059.001 66.708 0 121.206-52.256 124.805-118.065-7.201-4.398-15.664-6.935-24.72-6.935h-.144l-100 7.054v32.233z" fill="#ff9500"/><path d="m156 347.946c0 55.209 44.765 99.967 99.997 99.999l4.885-53.533-4.885-46.466z" fill="#fcc515"/><path d="m256.059 447.946c55.196 0 99.941-44.771 99.941-100h-100v99.999c.02 0 .039.001.059.001z" fill="#fa0"/></g></svg>